<svg xmlns="http://www.w3.org/2000/svg" version="1.1" xmlns:xlink="http://www.w3.org/1999/xlink"
     xmlns:svgjs="http://svgjs.dev/svgjs" width="1000" height="623" viewBox="0 0 1000 623">
    <g transform="matrix(1,0,0,1,-0.6060606060606233,0.2522267206477409)">
        <svg viewBox="0 0 396 247" data-background-color="#ffffff" preserveAspectRatio="xMidYMid meet" height="623"
             width="1000" xmlns="http://www.w3.org/2000/svg" xmlns:xlink="http://www.w3.org/1999/xlink">
            <defs></defs>
            <g id="tight-bounds" transform="matrix(1,0,0,1,0.2400000000000091,-0.09999999999999432)">
                <svg viewBox="0 0 395.52 247.2" height="247.2" width="395.52">
                    <g>
                        <svg></svg>
                    </g>
                    <g>
                        <svg viewBox="0 0 395.52 247.2" height="247.2" width="395.52">
                            <g>
                                <path d="M55.039 247.2l26.403-45.732 4.516 0-24.022 41.607h271.648l-24.022-41.607 4.516 0 26.403 45.732zM197.76 0l26.403 45.732-4.515 0-21.888-37.91-21.888 37.91-4.515 0z"
                                      fill="#ee3e38" data-fill-palette-color="tertiary"></path>
                            </g>
                            <g transform="matrix(1,0,0,1,43.89634998245512,67.97999999999999)">
                                <svg viewBox="0 0 307.72730003508974 111.24" height="111.24" width="307.72730003508974">
                                    <g>
                                        <svg viewBox="0 0 397.4976 143.69096605649844" height="111.24"
                                             width="307.72730003508974">
                                            <g>
                                                <svg viewBox="0 0 397.4976 143.69096605649844"
                                                     height="143.69096605649844" width="397.4976">
                                                    <g>
                                                        <svg viewBox="0 0 397.4976 143.69096605649844"
                                                             height="143.69096605649844" width="397.4976">
                                                            <g>
                                                                <rect width="397.4976" height="7.715932265274992" x="0"
                                                                      y="94.64992767803619" fill="#ee3e38" opacity="1"
                                                                      stroke-width="0" stroke="transparent"
                                                                      fill-opacity="1" class="rect-o-0"
                                                                      data-fill-palette-color="primary" rx="1%" id="o-0"
                                                                      data-palette-color="#ee3e38"></rect>
                                                            </g>
                                                            <g transform="matrix(1,0,0,1,0.9887999999999693,0)">
                                                                <svg viewBox="0 0 395.52000000000004 85.56047867444"
                                                                     height="85.56047867444" width="395.52000000000004">
                                                                    <g transform="matrix(1,0,0,1,0,0)">
                                                                        <svg width="395.52000000000004"
                                                                             viewBox="-1.100000023841858 -35.25 162.94000244140625 35.25"
                                                                             height="85.56047867444"
                                                                             data-palette-color="#ee3e38">
                                                                            <path d="M39.15 0L30.05 0 26.9-7.3 11.3-7.3 8.15 0-1.1 0 15.35-35.25 22.65-35.25 39.15 0ZM19.1-25.5L14.25-14.2 23.95-14.2 19.1-25.5ZM64.1-15.1L64.1-35.25 72.7-35.25 72.7 0 65.9 0 49.8-20.15 49.8 0 41.25 0 41.25-35.25 47.95-35.25 64.1-15.1ZM88.3 0L79.1 0 79.1-35.25 88.3-35.25 88.3 0ZM112.64-15.2L123.19-35.25 130.29-35.25 130.29 0 122.29 0 122.29-18.5 115.49-5.85 109.59-5.85 102.84-18.2 102.79 0 94.79 0 94.79-35.25 102.04-35.25 112.64-15.2ZM161.84 0L136.79 0 136.79-35.25 161.84-35.25 161.84-28.15 145.74-28.15 145.74-21.45 160.84-21.45 160.84-14.4 145.74-14.4 145.74-7.1 161.84-7.1 161.84 0Z"
                                                                                  opacity="1"
                                                                                  transform="matrix(1,0,0,1,0,0)"
                                                                                  fill="#ee3e38"
                                                                                  class="undefined-text-0"
                                                                                  data-fill-palette-color="primary"
                                                                                  id="text-0"></path>
                                                                        </svg>
                                                                    </g>
                                                                </svg>
                                                            </g>
                                                            <g transform="matrix(1,0,0,1,0,111.45530894690737)">
                                                                <svg viewBox="0 0 395.52000000000004 32.23565710959104"
                                                                     height="32.23565710959104"
                                                                     width="395.52000000000004">
                                                                    <g transform="matrix(1,0,0,1,0,0)">
                                                                        <svg width="395.52000000000004"
                                                                             viewBox="1.9000000953674316 -40.5 503.2099914550781 41.0099983215332"
                                                                             height="32.23565710959104"
                                                                             data-palette-color="#8d021f">
                                                                            <path d="M8.86 0L8.86-23.39 1.9-23.39 1.9-28.81 8.86-28.81 8.86-37.77 16.09-37.77 16.09-28.81 23.05-28.81 23.05-23.39 16.09-23.39 16.09 0 8.86 0ZM29.47 0L29.47-40.48 36.69-40.48 36.69-26.61Q38.96-27.86 41.76-28.59 44.55-29.32 47.63-29.32L47.63-29.32Q51.19-29.32 54.04-28.27 56.88-27.22 58.86-25.26 60.84-23.29 61.9-20.48 62.96-17.68 62.96-14.16L62.96-14.16 62.96 0 55.76 0 55.76-13.87Q55.76-15.92 55.1-17.61 54.44-19.31 53.17-20.53 51.9-21.75 50.08-22.42 48.26-23.1 45.97-23.1L45.97-23.1Q43.21-23.1 40.84-22.22 38.47-21.34 36.69-20L36.69-20 36.69 0 29.47 0ZM69.67-14.5L69.67-14.5Q69.67-17.43 70.87-20.1 72.07-22.78 74.31-24.83 76.56-26.88 79.82-28.1 83.08-29.32 87.23-29.32L87.23-29.32Q91.35-29.32 94.66-28.09 97.97-26.86 100.28-24.71 102.58-22.56 103.82-19.65 105.05-16.75 105.05-13.43L105.05-13.43Q105.05-13.01 105.04-12.54 105.02-12.06 104.98-11.67L104.98-11.67 77.73-11.67Q78.19-10.38 79.23-9.3 80.27-8.23 81.83-7.45 83.39-6.67 85.44-6.24 87.5-5.81 89.99-5.81L89.99-5.81Q92.48-5.81 94.94-6.34 97.41-6.86 99.65-7.67L99.65-7.67 102.09-2.15Q100.68-1.49 99.23-0.99 97.77-0.49 96.2-0.16 94.62 0.17 92.9 0.34 91.18 0.51 89.28 0.51L89.28 0.51Q84.42 0.51 80.76-0.66 77.09-1.83 74.63-3.86 72.16-5.88 70.92-8.62 69.67-11.35 69.67-14.5ZM77.73-17.31L97.38-17.31Q96.99-18.51 96.17-19.54 95.36-20.58 94.14-21.35 92.91-22.12 91.3-22.56 89.69-23 87.76-23L87.76-23Q85.71-23 84.03-22.53 82.34-22.07 81.07-21.29 79.8-20.51 78.96-19.48 78.12-18.46 77.73-17.31L77.73-17.31ZM129.21 0L129.21-40.5 136.44-40.5 136.44-26.1Q137.39-26.76 138.69-27.34 139.98-27.93 141.47-28.37 142.96-28.81 144.55-29.06 146.13-29.32 147.72-29.32L147.72-29.32Q151.38-29.32 154.45-28.25 157.51-27.17 159.71-25.22 161.9-23.27 163.14-20.54 164.37-17.82 164.37-14.53L164.37-14.53Q164.37-11.08 163.08-8.31 161.78-5.54 159.5-3.58 157.22-1.61 154.08-0.55 150.94 0.51 147.28 0.51L147.28 0.51Q145.72 0.51 144.19 0.32 142.67 0.12 141.26-0.22 139.86-0.56 138.63-1.04 137.39-1.51 136.44-2.08L136.44-2.08 136.44 0 129.21 0ZM136.44-19.04L136.44-9.06Q137.54-8.18 138.76-7.57 139.98-6.96 141.25-6.57 142.52-6.18 143.81-5.99 145.11-5.81 146.33-5.81L146.33-5.81Q148.82-5.81 150.76-6.48 152.7-7.15 154.03-8.33 155.36-9.5 156.07-11.08 156.78-12.67 156.78-14.53L156.78-14.53Q156.78-16.26 156.08-17.8 155.39-19.34 154.08-20.5 152.77-21.66 150.93-22.33 149.09-23 146.79-23L146.79-23Q145.33-23 143.86-22.72 142.4-22.44 141.04-21.92 139.69-21.41 138.5-20.68 137.32-19.95 136.44-19.04L136.44-19.04ZM169.69-14.5L169.69-14.5Q169.69-17.43 170.89-20.1 172.08-22.78 174.33-24.83 176.57-26.88 179.83-28.1 183.09-29.32 187.24-29.32L187.24-29.32Q191.37-29.32 194.68-28.09 197.99-26.86 200.29-24.71 202.6-22.56 203.83-19.65 205.07-16.75 205.07-13.43L205.07-13.43Q205.07-13.01 205.05-12.54 205.04-12.06 204.99-11.67L204.99-11.67 177.75-11.67Q178.21-10.38 179.25-9.3 180.29-8.23 181.85-7.45 183.41-6.67 185.46-6.24 187.51-5.81 190-5.81L190-5.81Q192.49-5.81 194.96-6.34 197.42-6.86 199.67-7.67L199.67-7.67 202.11-2.15Q200.7-1.49 199.24-0.99 197.79-0.49 196.22-0.16 194.64 0.17 192.92 0.34 191.2 0.51 189.29 0.51L189.29 0.51Q184.44 0.51 180.77-0.66 177.11-1.83 174.65-3.86 172.18-5.88 170.93-8.62 169.69-11.35 169.69-14.5ZM177.75-17.31L197.4-17.31Q197.01-18.51 196.19-19.54 195.37-20.58 194.15-21.35 192.93-22.12 191.32-22.56 189.71-23 187.78-23L187.78-23Q185.73-23 184.05-22.53 182.36-22.07 181.09-21.29 179.82-20.51 178.98-19.48 178.14-18.46 177.75-17.31L177.75-17.31ZM210.85-3.37L213.97-8.84Q216.9-7.08 220.42-6.25 223.94-5.42 227.62-5.42L227.62-5.42Q230.11-5.42 231.77-5.76 233.43-6.1 234.43-6.64 235.43-7.18 235.85-7.86 236.26-8.54 236.26-9.25L236.26-9.25Q236.26-10.28 235.37-11.01 234.48-11.74 232.43-11.74L232.43-11.74Q231.48-11.74 230.38-11.62 229.28-11.5 228.07-11.36 226.86-11.23 225.56-11.11 224.25-10.99 222.91-10.99L222.91-10.99Q219.98-10.99 217.92-11.62 215.85-12.26 214.56-13.35 213.27-14.45 212.68-15.95 212.09-17.46 212.09-19.19L212.09-19.19Q212.09-21.39 213.12-23.24 214.15-25.1 216.05-26.45 217.95-27.81 220.65-28.56 223.35-29.32 226.67-29.32L226.67-29.32Q228.4-29.32 230.3-29.11 232.19-28.91 234.02-28.56 235.85-28.22 237.53-27.77 239.22-27.32 240.51-26.81L240.51-26.81 238.24-21.19Q235.48-22.22 232.74-22.81 229.99-23.41 227.08-23.41L227.08-23.41Q225.06-23.41 223.65-23.11 222.25-22.8 221.37-22.3 220.49-21.8 220.09-21.15 219.69-20.51 219.69-19.8L219.69-19.8Q219.69-19.29 219.89-18.87 220.1-18.46 220.58-18.15 221.05-17.85 221.82-17.69 222.59-17.53 223.72-17.53L223.72-17.53Q224.74-17.53 225.89-17.65 227.04-17.77 228.28-17.91 229.53-18.04 230.86-18.16 232.19-18.29 233.58-18.29L233.58-18.29Q236.17-18.29 238.11-17.68 240.05-17.07 241.32-15.97 242.59-14.87 243.22-13.38 243.86-11.89 243.86-10.13L243.86-10.13Q243.86-7.86 242.81-5.91 241.76-3.96 239.68-2.53 237.61-1.1 234.52-0.29 231.43 0.51 227.38 0.51L227.38 0.51Q224.89 0.51 222.57 0.21 220.25-0.1 218.15-0.62 216.05-1.15 214.21-1.86 212.36-2.56 210.85-3.37L210.85-3.37ZM254.69 0L254.69-23.39 247.74-23.39 247.74-28.81 254.69-28.81 254.69-37.77 261.92-37.77 261.92-28.81 268.88-28.81 268.88-23.39 261.92-23.39 261.92 0 254.69 0ZM295.71-32.74L295.71-32.74Q294.63-32.74 293.76-33.04 292.9-33.35 292.29-33.87 291.68-34.4 291.35-35.1 291.02-35.79 291.02-36.57L291.02-36.57Q291.02-37.38 291.35-38.07 291.68-38.77 292.29-39.28 292.9-39.79 293.76-40.1 294.63-40.41 295.71-40.41L295.71-40.41Q296.8-40.41 297.67-40.1 298.54-39.79 299.15-39.28 299.76-38.77 300.09-38.07 300.42-37.38 300.42-36.57L300.42-36.57Q300.42-35.79 300.09-35.1 299.76-34.4 299.15-33.87 298.54-33.35 297.67-33.04 296.8-32.74 295.71-32.74ZM292.09 0L292.09-28.81 299.32-28.81 299.32 0 292.09 0ZM306.59-3.37L309.72-8.84Q312.65-7.08 316.16-6.25 319.68-5.42 323.36-5.42L323.36-5.42Q325.85-5.42 327.51-5.76 329.17-6.1 330.18-6.64 331.18-7.18 331.59-7.86 332.01-8.54 332.01-9.25L332.01-9.25Q332.01-10.28 331.12-11.01 330.22-11.74 328.17-11.74L328.17-11.74Q327.22-11.74 326.12-11.62 325.02-11.5 323.82-11.36 322.61-11.23 321.3-11.11 319.99-10.99 318.65-10.99L318.65-10.99Q315.72-10.99 313.66-11.62 311.6-12.26 310.3-13.35 309.01-14.45 308.42-15.95 307.84-17.46 307.84-19.19L307.84-19.19Q307.84-21.39 308.86-23.24 309.89-25.1 311.79-26.45 313.7-27.81 316.39-28.56 319.09-29.32 322.41-29.32L322.41-29.32Q324.14-29.32 326.04-29.11 327.93-28.91 329.76-28.56 331.59-28.22 333.28-27.77 334.96-27.32 336.25-26.81L336.25-26.81 333.98-21.19Q331.23-22.22 328.48-22.81 325.73-23.41 322.83-23.41L322.83-23.41Q320.8-23.41 319.4-23.11 317.99-22.8 317.11-22.3 316.23-21.8 315.83-21.15 315.43-20.51 315.43-19.8L315.43-19.8Q315.43-19.29 315.64-18.87 315.84-18.46 316.32-18.15 316.8-17.85 317.57-17.69 318.33-17.53 319.46-17.53L319.46-17.53Q320.48-17.53 321.63-17.65 322.78-17.77 324.02-17.91 325.27-18.04 326.6-18.16 327.93-18.29 329.32-18.29L329.32-18.29Q331.91-18.29 333.85-17.68 335.79-17.07 337.06-15.97 338.33-14.87 338.96-13.38 339.6-11.89 339.6-10.13L339.6-10.13Q339.6-7.86 338.55-5.91 337.5-3.96 335.42-2.53 333.35-1.1 330.26-0.29 327.17 0.51 323.12 0.51L323.12 0.51Q320.63 0.51 318.31 0.21 315.99-0.1 313.89-0.62 311.79-1.15 309.95-1.86 308.1-2.56 306.59-3.37L306.59-3.37ZM362.69 0L362.69-40.48 369.92-40.48 369.92-26.61Q372.19-27.86 374.98-28.59 377.78-29.32 380.85-29.32L380.85-29.32Q384.42-29.32 387.26-28.27 390.11-27.22 392.08-25.26 394.06-23.29 395.12-20.48 396.19-17.68 396.19-14.16L396.19-14.16 396.19 0 388.98 0 388.98-13.87Q388.98-15.92 388.32-17.61 387.67-19.31 386.4-20.53 385.13-21.75 383.31-22.42 381.49-23.1 379.19-23.1L379.19-23.1Q376.43-23.1 374.07-22.22 371.7-21.34 369.92-20L369.92-20 369.92 0 362.69 0ZM402.9-14.5L402.9-14.5Q402.9-17.43 404.09-20.1 405.29-22.78 407.54-24.83 409.78-26.88 413.04-28.1 416.3-29.32 420.45-29.32L420.45-29.32Q424.58-29.32 427.88-28.09 431.19-26.86 433.5-24.71 435.81-22.56 437.04-19.65 438.27-16.75 438.27-13.43L438.27-13.43Q438.27-13.01 438.26-12.54 438.25-12.06 438.2-11.67L438.2-11.67 410.95-11.67Q411.42-10.38 412.46-9.3 413.49-8.23 415.06-7.45 416.62-6.67 418.67-6.24 420.72-5.81 423.21-5.81L423.21-5.81Q425.7-5.81 428.17-6.34 430.63-6.86 432.88-7.67L432.88-7.67 435.32-2.15Q433.9-1.49 432.45-0.99 431-0.49 429.42-0.16 427.85 0.17 426.13 0.34 424.41 0.51 422.5 0.51L422.5 0.51Q417.64 0.51 413.98-0.66 410.32-1.83 407.85-3.86 405.39-5.88 404.14-8.62 402.9-11.35 402.9-14.5ZM410.95-17.31L430.61-17.31Q430.22-18.51 429.4-19.54 428.58-20.58 427.36-21.35 426.14-22.12 424.53-22.56 422.92-23 420.99-23L420.99-23Q418.94-23 417.25-22.53 415.57-22.07 414.3-21.29 413.03-20.51 412.19-19.48 411.34-18.46 410.95-17.31L410.95-17.31ZM446.03 0L446.03-28.81 453.26-28.81 453.26-24.66Q455.65-26.44 458.31-27.73 460.98-29.03 463.61-29.71L463.61-29.71 465.74-23.1Q461.56-22.68 458.4-21.23 455.24-19.78 453.26-17.14L453.26-17.14 453.26 0 446.03 0ZM469.74-14.5L469.74-14.5Q469.74-17.43 470.93-20.1 472.13-22.78 474.38-24.83 476.62-26.88 479.88-28.1 483.14-29.32 487.29-29.32L487.29-29.32Q491.42-29.32 494.73-28.09 498.03-26.86 500.34-24.71 502.65-22.56 503.88-19.65 505.11-16.75 505.11-13.43L505.11-13.43Q505.11-13.01 505.1-12.54 505.09-12.06 505.04-11.67L505.04-11.67 477.79-11.67Q478.26-10.38 479.3-9.3 480.33-8.23 481.9-7.45 483.46-6.67 485.51-6.24 487.56-5.81 490.05-5.81L490.05-5.81Q492.54-5.81 495.01-6.34 497.47-6.86 499.72-7.67L499.72-7.67 502.16-2.15Q500.74-1.49 499.29-0.99 497.84-0.49 496.26-0.16 494.69 0.17 492.97 0.34 491.25 0.51 489.34 0.51L489.34 0.51Q484.48 0.51 480.82-0.66 477.16-1.83 474.69-3.86 472.23-5.88 470.98-8.62 469.74-11.35 469.74-14.5ZM477.79-17.31L497.45-17.31Q497.06-18.51 496.24-19.54 495.42-20.58 494.2-21.35 492.98-22.12 491.37-22.56 489.76-23 487.83-23L487.83-23Q485.78-23 484.09-22.53 482.41-22.07 481.14-21.29 479.87-20.51 479.03-19.48 478.19-18.46 477.79-17.31L477.79-17.31Z"
                                                                                  opacity="1"
                                                                                  transform="matrix(1,0,0,1,0,0)"
                                                                                  fill="#8d021f"
                                                                                  class="undefined-text-1"
                                                                                  data-fill-palette-color="secondary"
                                                                                  id="text-1"></path>
                                                                        </svg>
                                                                    </g>
                                                                </svg>
                                                            </g>
                                                        </svg>
                                                    </g>
                                                </svg>
                                            </g>
                                        </svg>
                                    </g>
                                </svg>
                            </g>
                        </svg>
                    </g>
                </svg>
                <rect width="395.52" height="247.2" fill="none" stroke="none" visibility="hidden"></rect>
            </g>
        </svg>
    </g>
</svg>